<?xml version="1.0" encoding="utf-8"?>
<!-- Generator: Adobe Illustrator 15.0.0, SVG Export Plug-In . SVG Version: 6.00 Build 0)  -->
<!DOCTYPE svg PUBLIC "-//W3C//DTD SVG 1.1//EN" "http://www.w3.org/Graphics/SVG/1.1/DTD/svg11.dtd">
<svg version="1.1" id="Calque_1" xmlns="http://www.w3.org/2000/svg" xmlns:xlink="http://www.w3.org/1999/xlink" x="0px" y="0px"
	 width="512px" height="512px" viewBox="0 0 512 512" enable-background="new 0 0 512 512" xml:space="preserve">
<g>
	<path fill="#333333" d="M130.553,259.231h-35.63l-43.582-55.796v55.796h-31.32V147.918h71.26c5.302,0,10.245,1,14.829,2.992
		c4.584,1.997,8.536,4.662,11.851,8.001c3.315,3.338,5.937,7.213,7.87,11.618c1.931,4.408,2.899,9.024,2.899,13.846
		c0,4.544-0.496,8.579-1.491,12.104c-0.992,3.526-2.539,6.679-4.638,9.464c-2.102,2.782-4.753,5.215-7.955,7.303
		c-3.205,2.086-6.961,3.965-11.27,5.637c-0.222,0.092-0.442,0.232-0.662,0.416c-0.224,0.189-0.557,0.374-0.995,0.557
		L130.553,259.231z M98.901,185.347c0-3.061-1.218-5.749-3.647-8.068c-2.43-2.319-5.413-3.48-8.947-3.48H51.175v22.96h36.458
		c1.435,0,2.844-0.371,4.224-1.113c1.384-0.743,2.597-1.672,3.649-2.783c1.046-1.113,1.876-2.344,2.483-3.688
		C98.597,187.831,98.901,186.556,98.901,185.347z"/>
	<path fill="#333333" d="M349.297,150.562c2.655,1.022,5.17,2.391,7.543,4.105c2.371,1.717,4.443,3.666,6.214,5.844
		c1.77,2.182,3.153,4.476,4.143,6.889c0.995,2.411,1.493,4.869,1.493,7.374c0,6.122-1.407,11.666-4.227,16.628
		c-2.815,4.963-6.88,8.557-12.181,10.782c11.27,6.958,16.904,16.001,16.904,27.133c0,4.642-0.913,8.792-2.733,12.455
		c-1.826,3.666-4.339,6.796-7.543,9.389c-3.203,2.601-7.1,4.594-11.68,5.985c-4.591,1.39-9.587,2.086-15.003,2.086h-75.066V147.918
		h77.389C341.016,147.918,349.297,150.562,349.297,150.562z M338.524,182.008c0-2.319-0.963-4.429-2.897-6.332
		c-1.935-1.898-4.283-2.853-7.04-2.853h-39.444v17.672h42.26c0.995,0,1.935-0.279,2.815-0.836c0.881-0.556,1.634-1.251,2.24-2.087
		c0.603-0.832,1.104-1.758,1.492-2.782C338.334,183.771,338.524,182.842,338.524,182.008z M338.524,225.283
		c0-1.112-0.246-2.203-0.743-3.271c-0.498-1.064-1.159-2.016-1.988-2.851c-0.828-0.835-1.794-1.533-2.897-2.087
		c-1.106-0.559-2.214-0.835-3.317-0.835h-25.021l-15.414-19.62v37.707h40.436c1.104,0,2.211-0.277,3.317-0.833
		c1.104-0.558,2.069-1.252,2.897-2.087c0.829-0.837,1.49-1.787,1.988-2.852C338.278,227.486,338.524,226.394,338.524,225.283z"/>
	<path fill="#333333" d="M492.81,203.435c0,8.071-1.409,15.517-4.225,22.333c-2.819,6.82-6.853,12.711-12.101,17.673
		c-5.246,4.963-11.51,8.835-18.808,11.618c-7.289,2.782-15.412,4.173-24.357,4.173c-8.948,0-17.13-1.344-24.53-4.033
		c-7.4-2.69-13.752-6.494-19.059-11.413c-5.302-4.913-9.417-10.757-12.341-17.529c-2.931-6.77-4.391-14.285-4.391-22.542
		c0-8.161,1.489-15.653,4.472-22.472c2.985-6.817,7.15-12.681,12.512-17.601c5.356-4.914,11.794-8.766,19.308-11.55
		c7.511-2.782,15.742-4.174,24.69-4.174c8.837,0,16.876,1.392,24.112,4.174c7.236,2.784,13.424,6.659,18.562,11.62
		c5.137,4.962,9.111,10.832,11.931,17.602C491.4,188.085,492.81,195.461,492.81,203.435z M463.642,203.714
		c0-4.266-0.717-8.279-2.15-12.034c-1.437-3.756-3.48-7.029-6.136-9.812c-2.646-2.782-5.799-4.985-9.44-6.609
		c-3.65-1.62-7.684-2.435-12.101-2.435c-4.529,0-8.645,0.765-12.345,2.295c-3.7,1.534-6.85,3.689-9.445,6.471
		c-2.597,2.785-4.585,6.102-5.963,9.951c-1.388,3.851-2.076,8.048-2.076,12.591c0,4.361,0.717,8.397,2.158,12.106
		c1.432,3.71,3.448,6.935,6.045,9.668c2.596,2.739,5.689,4.896,9.281,6.472c3.59,1.58,7.537,2.366,11.85,2.366
		c4.414,0,8.504-0.811,12.259-2.435c3.759-1.623,6.962-3.828,9.613-6.611c2.655-2.782,4.728-6.05,6.215-9.808
		C462.902,212.132,463.642,208.076,463.642,203.714z"/>
	<path fill="#333333" d="M193.094,142.257c28.375,0,51.417,22.457,51.417,51.374v6.769l-102.835,10.459v-17.228
		C141.675,164.714,164.721,142.257,193.094,142.257z"/>
	<circle fill="#FFFFFF" cx="217.284" cy="183.786" r="15.843"/>
	<circle fill="#FFFFFF" cx="217.284" cy="183.786" r="15.843"/>
	<circle fill="#333333" cx="216.729" cy="185.828" r="4.013"/>
	
		<rect x="153.568" y="129.338" transform="matrix(-0.8729 0.4878 -0.4878 -0.8729 368.1838 216.3313)" fill="#333333" width="4.701" height="53.552"/>
	
		<rect x="229.96" y="129.383" transform="matrix(-0.7547 -0.6561 0.6561 -0.7547 310.6888 409.8853)" fill="#333333" width="4.019" height="34.957"/>
	<circle fill="#333333" cx="143.093" cy="132.602" r="7.208"/>
	<path fill="#333333" d="M241.53,128.028c-3.201,1.151-4.864,4.682-3.708,7.883c1.149,3.203,4.679,4.862,7.882,3.71
		c3.202-1.15,4.864-4.681,3.709-7.882C248.265,128.538,244.731,126.875,241.53,128.028z"/>
	<path fill="#C1272D" d="M233.127,165.945"/>
	<path fill="#333333" d="M252.238,217.35c-0.949,25.825-28.152,45.445-60.776,44.246c-32.628-1.195-58.321-22.759-57.372-48.583
		L252.238,217.35z"/>
	<path fill="#C1272D" stroke="#FFFFFF" stroke-width="2.0615" stroke-miterlimit="10" d="M261.784,380.525
		c0,0-6.433-2.621-18.881-35.888c-11.223-29.991,12.105-34.89-5.935-78.186c0,0-14.725-24.658-13.743-30.813l15.342-8.564
		c0,0,33.072,26.81,37.228,72.272c3.313,25.636-3.292,36.589-3.292,36.589s-4.934,10.008-0.318,35.267
		c0.373,2.059-0.953,17.613-4.513,15.138C263.854,383.681,261.784,380.525,261.784,380.525z"/>
	<g>
		<path fill="#333333" d="M222.36,235.083c1.717-6.445-8.466-22.587-8.569-22.749l-0.137-0.215l0.014-0.254
			c0.065-1.187,0.542-2.455,1.686-2.455c0.685,0,1.365,0.502,2.14,1.58c9.128,12.704,18.665,14.854,18.76,14.875l1.842,0.392
			l-16.276,10.856L222.36,235.083z"/>
		<path fill="#FFFFFF" d="M215.354,210.205c0.348,0,0.83,0.323,1.496,1.249c9.447,13.148,19.241,15.188,19.241,15.188l-12.964,8.646
			c1.826-6.855-8.666-23.378-8.666-23.378S214.554,210.205,215.354,210.205 M215.354,208.618c-1.398,0-2.371,1.258-2.478,3.204
			l-0.028,0.508l0.272,0.429c2.814,4.435,9.822,17.053,8.472,22.12l-1.081,4.059l3.495-2.331l12.964-8.646l3.15-2.101l-3.708-0.772
			c-0.086-0.019-9.358-2.149-18.275-14.561C217.549,209.708,216.619,208.618,215.354,208.618L215.354,208.618z"/>
	</g>
	<circle fill="#FFFFFF" cx="168.167" cy="183.891" r="16.94"/>
	<path fill="#333333" d="M164.109,185.828c0,2.216,1.801,4.013,4.015,4.013c2.217,0,4.015-1.796,4.015-4.013
		c0-2.218-1.798-4.014-4.015-4.014C165.91,181.814,164.109,183.61,164.109,185.828z"/>
	<path fill="#C1272D" d="M20.222,299.202c0-7.543,2.375-14.165,7.124-19.875c4.75-5.703,11.064-10.08,18.946-13.118
		c7.88-3.039,16.259-4.561,25.139-4.561c5.333,0,11.021,0.482,17.059,1.441c6.041,0.961,11.298,2.673,15.771,5.14
		s6.709,5.795,6.709,9.98c0,3.672-1.394,6.796-4.179,9.379c-2.788,2.581-6.333,3.87-10.636,3.87c-1.857,0-3.477-0.187-4.851-0.559
		l-5.938-1.764c-5.126-1.521-9.996-2.279-14.609-2.279c-4.024,0-7.706,0.847-11.046,2.539c-3.338,1.69-5.008,4.071-5.008,7.141
		c0,4.815,4.371,8.172,13.113,10.065l8.67,1.935c13.629,3.067,24.434,7.221,32.42,12.454c7.982,5.232,11.976,12.825,11.976,22.777
		c0,12.158-4.009,21.737-12.027,28.737c-4.784,4.327-10.781,7.497-17.991,9.505c-7.208,2.005-14.755,3.012-22.638,3.012
		c-14.384,0-26.721-2.064-37.009-6.195c-3.614-1.434-6.522-3.382-8.724-5.853c-2.204-2.465-3.304-5.274-3.304-8.43
		c0-3.096,1.395-5.892,4.18-8.388c2.789-2.493,6.04-3.743,9.757-3.743c3.166,0,5.92,0.415,8.261,1.25l11.201,3.482
		c5.437,1.779,10.72,2.667,15.846,2.667c4.613,0,8.726-1.082,12.338-3.248c3.614-2.165,5.42-5.14,5.42-8.925
		c0-3.843-1.754-6.71-5.263-8.605c-2.893-1.517-5.715-2.659-8.468-3.42c-2.754-0.758-7.467-1.971-14.145-3.633
		c-8.638-2.093-15.57-4.287-20.804-6.582c-5.23-2.294-9.419-5.542-12.567-9.743S20.222,305.97,20.222,299.202z"/>
	<path fill="#C1272D" d="M165.286,343.424v25.38c0,4.245-1.421,7.801-4.26,10.669c-2.837,2.867-6.771,4.303-11.797,4.303
		c-4.988,0-8.955-1.443-11.894-4.323c-2.943-2.883-4.415-6.434-4.415-10.648v-87.925c0-5.104,1.729-9.111,5.186-12.024
		c3.461-2.913,8.288-4.365,14.482-4.365h32.984c15.899,0,27.876,3.282,35.93,9.852c2.958,2.351,5.573,5.104,7.842,8.258
		c2.275,3.153,4.005,6.481,5.191,9.978c1.186,3.5,1.778,7,1.778,10.5c0,11.412-3.595,20.69-10.785,27.829
		c-8.229,8.348-20.136,12.519-35.724,12.519H165.286z M165.286,319.98h16.467c6.951,0,12.32-1.578,16.104-4.731
		c3.511-2.955,5.269-6.954,5.269-12.004c-0.312-4.646-2.271-8.328-5.887-11.054c-3.615-2.725-8.209-4.087-13.781-4.087h-18.171
		V319.98z"/>
	<path fill="#C1272D" d="M287.236,319.807c0-8.229,1.684-15.915,5.06-23.056c3.372-7.141,8.19-13.348,14.459-18.628
		c6.266-5.274,13.683-9.341,22.257-12.192c8.573-2.854,17.904-4.282,27.992-4.282c5.511,0,11.516,0.58,18.027,1.743
		c6.506,1.16,12.145,3.103,16.912,5.827c4.77,2.726,7.15,6.254,7.15,10.583c0,3.644-1.081,6.669-3.254,9.076
		c-2.167,2.409-5.296,3.614-9.394,3.614c-2.509,0-6.539-0.873-12.076-2.623c-5.988-2.009-11.481-3.012-16.469-3.012
		c-8.121,0-14.873,1.598-20.262,4.796c-5.383,3.199-9.387,7.507-12,12.929c-2.615,5.419-3.923,11.498-3.923,18.239
		c0,13.477,4.024,23.342,12.082,29.593c6.327,4.933,14.293,7.399,23.898,7.399c5.266,0,9.549-0.587,12.853-1.761l9.55-3.702
		c2.545-0.831,4.663-1.247,6.347-1.247c4.338,0,7.743,1.262,10.221,3.786c2.482,2.521,3.718,5.492,3.718,8.904
		c0,5.072-3.321,9.247-9.97,12.519c-8.914,4.472-20.399,6.71-34.442,6.71c-8.814,0-17.334-1.299-25.565-3.895
		c-8.231-2.595-15.438-6.357-21.64-11.293C294.413,358.479,287.236,341.804,287.236,319.807z"/>
	<path fill="#C1272D" d="M441.64,288.618v22.372h30.201c4.539,0,8.362,1.075,11.456,3.226c3.098,2.15,4.646,5.134,4.646,8.948
		c0,3.641-1.565,6.546-4.695,8.71c-3.136,2.165-6.938,3.248-11.407,3.248H441.64v22.757h33.399c4.681,0,8.523,1.062,11.535,3.182
		c3.01,2.123,4.516,5.104,4.516,8.948c0,3.671-1.528,6.59-4.59,8.753c-3.065,2.166-6.886,3.249-11.461,3.249h-46.097
		c-6.231,0-11.064-1.434-14.505-4.303c-3.444-2.865-5.164-6.896-5.164-12.088v-84.741c0-5.104,1.729-9.111,5.187-12.024
		s8.287-4.365,14.482-4.365h46.097c4.681,0,8.523,1.075,11.535,3.226c3.01,2.15,4.516,5.134,4.516,8.948
		c0,3.641-1.528,6.546-4.59,8.707c-3.065,2.17-6.886,3.248-11.461,3.248H441.64z"/>
</g>
</svg>
